<svg width="12" height="6" viewBox="0 0 12 6" fill="none" xmlns="http://www.w3.org/2000/svg">
<path fill-rule="evenodd" clip-rule="evenodd" d="M0.76193 0.389628C0.815809 0.332082 0.880499 0.285718 0.952304 0.253185C1.02411 0.220652 1.10162 0.202587 1.18041 0.200024C1.2592 0.197461 1.33772 0.21045 1.41149 0.238247C1.48526 0.266044 1.55283 0.308106 1.61033 0.362028L5.99993 4.47803L10.3895 0.362028C10.5057 0.253183 10.6603 0.194942 10.8194 0.200118C10.9786 0.205294 11.1291 0.273463 11.2379 0.389628C11.3468 0.505793 11.405 0.660438 11.3998 0.819544C11.3947 0.97865 11.3265 1.12918 11.2103 1.23803L6.41033 5.73803C6.29912 5.8423 6.15238 5.90034 5.99993 5.90034C5.84748 5.90034 5.70074 5.8423 5.58953 5.73803L0.78953 1.23803C0.731985 1.18415 0.68562 1.11946 0.653087 1.04765C0.620554 0.975849 0.60249 0.898336 0.599927 0.819547C0.597363 0.740757 0.610352 0.662235 0.638149 0.588467C0.665946 0.514699 0.708008 0.447132 0.76193 0.389628Z" fill="#878787"/>
</svg>
